<?xml version="1.0" standalone="no"?><!DOCTYPE svg PUBLIC "-//W3C//DTD SVG 1.1//EN" "http://www.w3.org/Graphics/SVG/1.1/DTD/svg11.dtd"><svg t="1592907958987" class="icon" viewBox="0 0 1024 1024" version="1.1" xmlns="http://www.w3.org/2000/svg" p-id="6320" xmlns:xlink="http://www.w3.org/1999/xlink" width="32" height="32"><defs><style type="text/css"></style></defs><path d="M96 896a32 32 0 1 0 0 64v-64z m832 64a32 32 0 1 0 0-64v64zM128 480l-20.48-24.576A32 32 0 0 0 96 480h32z m192-160l19.2-25.6a32 32 0 0 0-39.68 1.024L320 320z m128 96l-19.2 25.6a32 32 0 0 0 37.792 0.448L448 416zM896 96h32a32 32 0 0 0-50.592-26.048L896 96z m0 671.744v32a32 32 0 0 0 32-32h-32z m-768 0H96a32 32 0 0 0 32 32v-32zM96 960h832v-64H96v64z m52.48-455.424l192-160-40.96-49.152-192 160 40.96 49.152zM300.8 345.6l128 96 38.4-51.2-128-96-38.4 51.2z m165.792 96.448l448-320-37.184-52.096-448 320 37.184 52.096zM864 96v671.744h64V96h-64z m32 639.744H128v64h768v-64z m-736 32V480H96v287.744h64z" p-id="6322"></path></svg>