<?xml version="1.0" standalone="no"?><!DOCTYPE svg PUBLIC "-//W3C//DTD SVG 1.1//EN" "http://www.w3.org/Graphics/SVG/1.1/DTD/svg11.dtd"><svg t="1593487178365" class="icon" viewBox="0 0 1024 1024" version="1.1" xmlns="http://www.w3.org/2000/svg" p-id="5420" xmlns:xlink="http://www.w3.org/1999/xlink" width="200" height="200"><defs><style type="text/css"></style></defs><path d="M267.761881 317.627081l77.994352 0 0 77.977979-77.994352 0 0-77.977979Z" p-id="5421"></path><path d="M404.250462 317.627081l77.993329 0 0 77.977979-77.993329 0 0-77.977979Z" p-id="5422"></path><path d="M540.740066 317.627081l77.993329 0 0 77.977979-77.993329 0 0-77.977979Z" p-id="5423"></path><path d="M677.228647 317.627081l77.994352 0 0 77.977979-77.994352 0 0-77.977979Z" p-id="5424"></path><path d="M267.761881 473.598388l77.994352 0 0 77.976956-77.994352 0 0-77.976956Z" p-id="5425"></path><path d="M404.250462 473.598388l77.993329 0 0 77.976956-77.993329 0 0-77.976956Z" p-id="5426"></path><path d="M540.740066 473.598388l77.993329 0 0 77.976956-77.993329 0 0-77.976956Z" p-id="5427"></path><path d="M677.228647 473.598388l77.994352 0 0 77.976956-77.994352 0 0-77.976956Z" p-id="5428"></path><path d="M287.258934 629.5523l428.965865 0 0 77.977979-428.965865 0 0-77.977979Z" p-id="5429"></path><path d="M511.491928 65.284889c-246.638283 0-447.293279 200.638623-447.293279 447.293279s200.654996 447.293279 447.293279 447.293279c246.654656 0 447.309652-200.638623 447.309652-447.293279S758.146585 65.284889 511.491928 65.284889zM511.491928 943.232488c-237.459227 0-430.656367-193.195094-430.656367-430.65432 0-237.458203 193.19714-430.655344 430.656367-430.655344 237.474576 0 430.670693 193.19714 430.670693 430.655344C942.162622 750.037395 748.966505 943.232488 511.491928 943.232488z" p-id="5430"></path></svg>