<?xml version="1.0" standalone="no"?><!DOCTYPE svg PUBLIC "-//W3C//DTD SVG 1.1//EN" "http://www.w3.org/Graphics/SVG/1.1/DTD/svg11.dtd"><svg t="1593940020903" class="icon" viewBox="0 0 1024 1024" version="1.1" xmlns="http://www.w3.org/2000/svg" p-id="6176" xmlns:xlink="http://www.w3.org/1999/xlink" width="32" height="32"><defs><style type="text/css"></style></defs><path d="M1001.6 828.8L764.8 590.4c-30.4-30.4-80-30.4-110.4 0l-80-76.8c92.8-123.2 84.8-302.4-30.4-416-123.2-123.2-328-123.2-451.2 0s-123.2 323.2 0 446.4c64 64 144 92.8 225.6 92.8 68.8 0 136-20.8 192-64l76.8 76.8c-30.4 30.4-30.4 80 0 110.4l238.4 238.4c17.6 17.6 33.6 20.8 56 20.8s38.4-8 56-20.8l64-64c30.4-25.6 30.4-76.8 0-105.6zM156.8 488c-89.6-89.6-89.6-238.4 0-328 46.4-46.4 105.6-72 166.4-72s118.4 20.8 166.4 68.8c89.6 89.6 89.6 238.4 0 328-96 92.8-244.8 92.8-332.8 3.2z m726.4 451.2L654.4 708.8l56-56 228.8 228.8-56 57.6z" p-id="6177"></path><path d="M216 259.2h128c25.6 0 43.2-17.6 43.2-43.2 0-20.8-17.6-43.2-43.2-43.2h-128c-25.6 0-43.2 20.8-43.2 43.2 0 25.6 17.6 43.2 43.2 43.2zM385.6 344H216c-25.6 0-43.2 17.6-43.2 43.2s17.6 43.2 43.2 43.2h169.6c25.6 0 43.2-17.6 43.2-43.2s-22.4-43.2-43.2-43.2z" p-id="6178"></path></svg>