<?xml version="1.0" standalone="no"?><!DOCTYPE svg PUBLIC "-//W3C//DTD SVG 1.1//EN" "http://www.w3.org/Graphics/SVG/1.1/DTD/svg11.dtd"><svg t="1593485684538" class="icon" viewBox="0 0 1024 1024" version="1.1" xmlns="http://www.w3.org/2000/svg" p-id="5170" xmlns:xlink="http://www.w3.org/1999/xlink" width="200" height="200"><defs><style type="text/css"></style></defs><path d="M783.872 417.621333l-79.744-107.733333a34.005333 34.005333 0 0 0-56.405333 3.072 33.877333 33.877333 0 0 0-4.565334 10.666667L572.586667 618.24l-46.208-92.458667a33.706667 33.706667 0 0 0-45.226667-15.232 27.861333 27.861333 0 0 0-11.178667 9.130667l-37.12 33.024-75.648-152.405333a33.706667 33.706667 0 0 0-45.226666-15.274667c-2.048 1.024-3.541333 2.048-5.12 3.072a31.957333 31.957333 0 0 0-12.16 11.178667l-119.893334 180.864H38.613333a33.493333 33.493333 0 1 0 0 67.029333h152.405334a33.962667 33.962667 0 0 0 29.44-14.72s0-0.512 0.554666-0.512l100.565334-152.405333 69.12 138.197333a41.514667 41.514667 0 0 0 6.058666 10.154667c4.608 5.589333 10.666667 8.618667 17.28 10.154666 7.637333 2.048 15.786667 1.024 23.381334-2.56 3.541333-2.005333 7.125333-4.565333 9.642666-7.082666l38.613334-34.048 67.584 135.68a33.706667 33.706667 0 0 0 45.226666 15.232 34.688 34.688 0 0 0 18.261334-23.893334l75.690666-315.477333 37.12 50.261333a34.005333 34.005333 0 0 0 47.232 7.125334c14.72-9.642667 17.792-30.976 7.082667-45.696z" fill="#2c2c2c" p-id="5171"></path><path d="M501.930667 1016.064a518.570667 518.570667 0 0 1-322.090667-112.256 510.976 510.976 0 0 1-178.816-281.472 34.645333 34.645333 0 0 1 25.386667-41.130667 34.645333 34.645333 0 0 1 41.173333 25.386667c46.72 200.661333 225.536 340.906667 434.858667 340.906667 245.888 0 446.037333-197.12 446.037333-439.978667 0-242.816-200.149333-439.936-446.037333-439.936-182.912 0-345.472 108.202667-413.525334 275.328-5.12 12.714667-9.685333 25.898667-13.738666 39.125333a34.773333 34.773333 0 0 1-42.666667 22.869334 34.773333 34.773333 0 0 1-22.869333-42.666667c4.565333-15.274667 10.154667-30.506667 15.786666-45.226667a507.989333 507.989333 0 0 1 185.898667-228.608A521.770667 521.770667 0 0 1 501.930667 0c69.12 0 136.661333 13.226667 200.149333 39.637333a511.786667 511.786667 0 0 1 273.834667 270.250667c26.922667 62.506667 40.661333 129.066667 40.661333 198.144a499.2 499.2 0 0 1-40.661333 198.144 507.605333 507.605333 0 0 1-110.250667 161.536 506.282667 506.282667 0 0 1-163.584 108.714667c-63.488 26.453333-131.072 39.637333-200.106667 39.637333z" fill="#2c2c2c" p-id="5172"></path></svg>